<svg xmlns="http://www.w3.org/2000/svg">
<g clip-path="url(#clip0_4069_43290)">
<path d="M18.7632 0L0 9.37723V27.9912H20.4578L39.2562 18.6228V0H18.7632ZM36.5256 17.1916H34.9802L20.6246 5.69834V25.3133H2.68673V11.0279L16.0238 4.36375V6.6466L4.71496 12.301V15.5234H16.0238V17.5428H4.71496V23.2938H18.5964V2.80966H20.2559L34.4973 14.2239V2.80966H36.5256V17.1916Z" />
<path d="M94.747 8.38507H91.5774V22.6353H94.747V8.38507Z" />
<path d="M94.9049 3.95108H91.4192V6.9539H94.9049V3.95108Z" />
<path d="M111.965 8.38508V20.4754C111.965 25.4977 109.53 28.0059 104.66 28C103.409 28.0096 102.163 27.8351 100.963 27.482C99.9054 27.1927 98.9228 26.6774 98.0833 25.9718L99.4969 23.4694C100.161 24.0211 100.924 24.4413 101.745 24.7074C102.629 25.0131 103.557 25.1703 104.493 25.1728C105.082 25.2255 105.676 25.1586 106.239 24.976C106.802 24.7935 107.322 24.499 107.768 24.1104C108.528 23.2029 108.9 22.0327 108.804 20.8529V20.1066C108.267 20.728 107.59 21.2126 106.828 21.5202C106.013 21.8431 105.142 22.0042 104.265 21.9944C103.037 22.0136 101.826 21.7108 100.752 21.1163C99.7211 20.5444 98.8697 19.696 98.294 18.6667C97.706 17.5595 97.3984 16.3249 97.3984 15.0712C97.3984 13.8175 97.706 12.5829 98.294 11.4757C98.8734 10.4582 99.7247 9.62207 100.752 9.06115C101.828 8.47155 103.038 8.16916 104.265 8.18313C105.182 8.17036 106.092 8.3405 106.943 8.6836C107.737 9.02146 108.432 9.55635 108.962 10.2377V8.34118L111.965 8.38508ZM107.698 18.0433C108.082 17.6568 108.382 17.1954 108.58 16.6879C108.778 16.1803 108.869 15.6375 108.848 15.0931C108.868 14.5554 108.776 14.0194 108.578 13.5191C108.38 13.0188 108.08 12.5651 107.698 12.1869C106.879 11.4623 105.823 11.0623 104.73 11.0623C103.637 11.0623 102.581 11.4623 101.762 12.1869C101.377 12.5634 101.074 13.0165 100.875 13.5171C100.675 14.0177 100.582 14.5546 100.603 15.0931C100.582 15.6383 100.674 16.182 100.873 16.6898C101.073 17.1976 101.375 17.6585 101.762 18.0433C102.578 18.7733 103.635 19.1768 104.73 19.1768C105.825 19.1768 106.881 18.7733 107.698 18.0433Z" />
<path d="M127.163 9.79869C127.715 10.4376 128.136 11.179 128.401 11.9805C128.666 12.782 128.771 13.6278 128.709 14.4697V22.6353H125.539V14.9C125.604 13.8844 125.291 12.8806 124.661 12.0815C124.363 11.7625 123.998 11.5124 123.594 11.3486C123.189 11.1848 122.753 11.1113 122.317 11.1333C121.803 11.1073 121.29 11.1927 120.813 11.3837C120.335 11.5746 119.905 11.8666 119.551 12.2396C118.821 13.1384 118.46 14.2807 118.541 15.4356V22.6353H115.372V3.95108H118.541V10.0357C119.074 9.44244 119.739 8.98234 120.482 8.69238C121.3 8.36938 122.174 8.21124 123.054 8.22703C123.81 8.194 124.565 8.31644 125.272 8.58677C125.979 8.8571 126.622 9.26958 127.163 9.79869Z" />
<path d="M154.399 16.577H143.74C143.886 17.5676 144.408 18.4639 145.198 19.0793C146.048 19.6943 147.082 20.0038 148.13 19.9573C148.817 19.979 149.501 19.8521 150.134 19.5854C150.768 19.3187 151.336 18.9185 151.8 18.412L153.504 20.4666C152.896 21.2388 152.101 21.8432 151.195 22.2226C150.196 22.6251 149.128 22.8251 148.051 22.8109C146.681 22.8391 145.327 22.5156 144.118 21.8714C143.004 21.2664 142.089 20.3515 141.484 19.2374C140.873 18.0746 140.571 16.7747 140.606 15.4619C140.58 14.1583 140.882 12.8691 141.484 11.7128C142.056 10.6188 142.923 9.70655 143.986 9.0787C145.081 8.45073 146.324 8.12923 147.586 8.148C148.814 8.11992 150.027 8.42322 151.098 9.02601C152.136 9.63983 152.979 10.5347 153.53 11.6074C154.136 12.8035 154.437 14.1304 154.408 15.4707C154.452 15.8219 154.435 16.1555 154.399 16.577ZM145.031 11.8445C144.313 12.5016 143.857 13.3969 143.749 14.3644H151.432C151.337 13.4049 150.897 12.5126 150.194 11.8532C149.474 11.2391 148.559 10.9018 147.612 10.9018C146.666 10.9018 145.751 11.2391 145.031 11.8532V11.8445Z" />
<path d="M168.509 9.7987C169.066 10.4356 169.491 11.176 169.761 11.9776C170.03 12.7791 170.139 13.6261 170.081 14.4698V22.6353H166.911V14.9C166.985 13.8904 166.688 12.8887 166.077 12.0815C165.773 11.7576 165.402 11.5047 164.989 11.3408C164.576 11.1769 164.132 11.106 163.689 11.1333C163.176 11.1073 162.662 11.1927 162.185 11.3837C161.708 11.5747 161.277 11.8666 160.923 12.2396C160.194 13.1384 159.833 14.2808 159.914 15.4356V22.6353H156.744V8.38509H159.764V10.2553C160.284 9.59497 160.964 9.07822 161.74 8.75385C162.593 8.40822 163.506 8.238 164.427 8.25338C165.176 8.22052 165.925 8.34058 166.627 8.60624C167.329 8.8719 167.969 9.27762 168.509 9.7987Z" />
<path d="M61.6895 19.7291V22.6353H49.1689V3.95108H61.6895V6.8661H52.4703V11.7215H61.6895V14.5751H52.4703V19.7291H61.6895Z" />
<path d="M139.658 8.49045H136.47V5.233H133.301V8.49045H130.114V11.3528H133.301V22.6353H136.47V11.3528H139.658V8.49045Z" />
<path d="M87.6086 18.7369V3.95108H84.439V19.2988C84.4177 20.1614 84.7395 20.9971 85.3338 21.6226C85.928 22.2481 86.7462 22.6123 87.6086 22.6353H88.7764V20.0013C88.6161 19.9968 88.4583 19.9603 88.3123 19.894C88.1663 19.8276 88.0351 19.7328 87.9263 19.615C87.8175 19.4972 87.7333 19.3588 87.6788 19.208C87.6242 19.0572 87.6004 18.8971 87.6086 18.7369Z" />
<path d="M77.6694 3.95108V16.7262L77.5728 16.6033L67.7829 3.95108H65.0698V22.6353H68.2395V9.85136L78.1347 22.6353H80.8478V3.95108H77.6694Z" />
</g>
<defs>
<clipPath id="clip0_4069_43290">
<rect width="170.055" height="28" fill="white"/>
</clipPath>
</defs>
</svg>
