<svg width="146" height="24" viewBox="0 0 146 24" fill="none" xmlns="http://www.w3.org/2000/svg">
<g clip-path="url(#clip0_4070_611)">
<path d="M16.0828 0L0 8.03763V23.9925H17.5353L33.6482 15.9624V0H16.0828ZM31.3076 14.7357H29.9831L17.6783 4.88429V21.6971H2.30291V9.45249L13.7347 3.74036V5.69708L4.04139 10.5437V13.3057H13.7347V15.0367H4.04139V19.9661H15.9398V2.40828H17.3622L29.5691 12.1919V2.40828H31.3076V14.7357Z" fill="#6400FF"/>
<path d="M81.211 7.18719H78.4941V19.4017H81.211V7.18719Z" fill="black"/>
<path d="M81.3471 3.38666H78.3594V5.96051H81.3471V3.38666Z" fill="black"/>
<path d="M95.9698 7.18722V17.5503C95.9698 21.8551 93.8826 24.005 89.7083 24C88.6361 24.0083 87.5685 23.8586 86.5399 23.556C85.6332 23.308 84.791 22.8664 84.0714 22.2615L85.2831 20.1167C85.8521 20.5895 86.5059 20.9497 87.2097 21.1778C87.9675 21.4398 88.7635 21.5745 89.5653 21.5767C90.0704 21.6219 90.5795 21.5645 91.0619 21.408C91.5443 21.2516 91.99 20.9992 92.3724 20.6661C93.0238 19.8882 93.3428 18.8852 93.2605 17.874V17.2343C92.8003 17.7669 92.2198 18.1822 91.5672 18.4459C90.868 18.7227 90.1216 18.8607 89.3696 18.8523C88.3176 18.8688 87.2797 18.6093 86.3593 18.0997C85.4752 17.6095 84.7454 16.8823 84.252 16C83.748 15.051 83.4844 13.9928 83.4844 12.9182C83.4844 11.8436 83.748 10.7854 84.252 9.83633C84.7486 8.96415 85.4783 8.2475 86.3593 7.76671C87.2814 7.26134 88.3182 7.00214 89.3696 7.01412C90.1556 7.00317 90.936 7.14901 91.665 7.4431C92.3459 7.73268 92.9417 8.19117 93.396 8.77518V7.14959L95.9698 7.18722ZM92.3122 15.4657C92.6413 15.1344 92.8987 14.739 93.0683 14.3039C93.2379 13.8689 93.3161 13.4036 93.2981 12.937C93.3155 12.4761 93.2368 12.0167 93.067 11.5878C92.8973 11.159 92.6403 10.7701 92.3122 10.4459C91.6104 9.82482 90.7057 9.48194 89.7685 9.48194C88.8313 9.48194 87.9265 9.82482 87.2247 10.4459C86.8942 10.7686 86.635 11.157 86.4639 11.5861C86.2928 12.0152 86.2136 12.4754 86.2313 12.937C86.2129 13.4043 86.2917 13.8703 86.4627 14.3056C86.6337 14.7408 86.8932 15.1359 87.2247 15.4657C87.9243 16.0914 88.8299 16.4373 89.7685 16.4373C90.707 16.4373 91.6127 16.0914 92.3122 15.4657Z" fill="black"/>
<path d="M108.998 8.39889C109.471 8.94656 109.831 9.58203 110.058 10.269C110.286 10.956 110.375 11.681 110.322 12.4027V19.4017H107.606V12.7714C107.661 11.9009 107.393 11.0405 106.853 10.3556C106.597 10.0822 106.285 9.86776 105.938 9.72738C105.591 9.587 105.217 9.52401 104.844 9.54282C104.403 9.52056 103.964 9.59378 103.554 9.75746C103.145 9.92114 102.776 10.1714 102.473 10.4911C101.848 11.2615 101.538 12.2407 101.607 13.2305V19.4017H98.8906V3.38666H101.607V8.60209C102.064 8.09354 102.634 7.69916 103.271 7.45063C103.972 7.17377 104.722 7.03822 105.476 7.05176C106.124 7.02345 106.771 7.12839 107.376 7.3601C107.982 7.59182 108.534 7.94537 108.998 8.39889Z" fill="black"/>
<path d="M132.343 14.2088H123.207C123.331 15.058 123.779 15.8262 124.456 16.3537C125.185 16.8809 126.071 17.1461 126.97 17.1063C127.558 17.1248 128.144 17.0161 128.687 16.7875C129.23 16.5589 129.717 16.2159 130.115 15.7818L131.575 17.5428C131.054 18.2047 130.373 18.7228 129.596 19.048C128.74 19.393 127.824 19.5644 126.902 19.5522C125.728 19.5764 124.567 19.2991 123.53 18.7469C122.575 18.2284 121.791 17.4442 121.272 16.4892C120.749 15.4925 120.49 14.3784 120.52 13.2531C120.497 12.1357 120.756 11.0307 121.272 10.0395C121.763 9.10187 122.506 8.31991 123.417 7.78176C124.356 7.2435 125.421 6.96793 126.503 6.98401C127.556 6.95995 128.596 7.21992 129.513 7.7366C130.403 8.26273 131.126 9.0298 131.598 9.94921C132.117 10.9745 132.375 12.1118 132.351 13.2606C132.388 13.5616 132.373 13.8476 132.343 14.2088ZM124.313 10.1524C123.697 10.7157 123.307 11.4831 123.214 12.3123H129.799C129.718 11.49 129.341 10.7251 128.738 10.1599C128.121 9.63355 127.337 9.34439 126.526 9.34439C125.714 9.34439 124.93 9.63355 124.313 10.1599V10.1524Z" fill="black"/>
<path d="M144.436 8.39887C144.913 8.94478 145.278 9.57944 145.509 10.2665C145.74 10.9535 145.833 11.6795 145.783 12.4026V19.4017H143.067V12.7714C143.129 11.906 142.875 11.0474 142.352 10.3556C142.091 10.0779 141.773 9.86114 141.419 9.72065C141.065 9.58016 140.685 9.51943 140.305 9.5428C139.864 9.52053 139.425 9.59376 139.015 9.75743C138.606 9.92111 138.237 10.1714 137.934 10.4911C137.309 11.2615 136.999 12.2406 137.068 13.2305V19.4017H134.352V7.1872H136.94V8.79021C137.386 8.22424 137.969 7.78131 138.634 7.50328C139.365 7.20702 140.148 7.06113 140.937 7.07431C141.579 7.04614 142.221 7.14905 142.823 7.37676C143.424 7.60447 143.973 7.95223 144.436 8.39887Z" fill="black"/>
<path d="M52.8764 16.9106V19.4017H42.1445V3.38666H52.8764V5.88525H44.9743V10.0471H52.8764V12.493H44.9743V16.9106H52.8764Z" fill="black"/>
<path d="M119.706 7.27751H116.974V4.48541H114.257V7.27751H111.525V9.73094H114.257V19.4017H116.974V9.73094H119.706V7.27751Z" fill="black"/>
<path d="M75.0927 16.0602V3.38666H72.3758V16.5419C72.3576 17.2812 72.6335 17.9975 73.1428 18.5337C73.6522 19.0698 74.3534 19.382 75.0927 19.4017H76.0936V17.144C75.9562 17.1401 75.821 17.1089 75.6958 17.052C75.5707 16.9951 75.4582 16.9138 75.3649 16.8129C75.2717 16.7119 75.1996 16.5933 75.1528 16.464C75.106 16.3348 75.0856 16.1975 75.0927 16.0602Z" fill="black"/>
<path d="M66.5731 3.38666V14.3368L66.4903 14.2314L58.0989 3.38666H55.7734V19.4017H58.4903V8.44404L66.9719 19.4017H69.2974V3.38666H66.5731Z" fill="black"/>
</g>
<defs>
<clipPath id="clip0_4070_611">
<rect width="145.761" height="24" fill="white"/>
</clipPath>
</defs>
</svg>
