<svg fill="none" height="32" viewBox="0 0 32 32" width="32" xmlns="http://www.w3.org/2000/svg"><path clip-rule="evenodd" d="m6.42233 4h19.15537c2.4422 0 4.4223 1.98684 4.4223 4.43793v10.52827c0 2.4511-1.9807 4.438-4.4223 4.438h-6.5982l-2.2519 3.6662s-.0195.0424-.076.109c-.1325.2233-.3734.3747-.6519.3747-.2799 0-.5221-.154-.654-.3794-.0491-.0606-.0733-.1043-.0733-.1043l-2.2519-3.6662h-6.59817c-2.44295 0-4.42233-1.9869-4.42233-4.438v-10.52827c0-2.45109 1.97938-4.43793 4.42233-4.43793zm.35658 12.2534s.40907.7381 1.4398.7381c0 0 2.41539-.0888 2.41539-2.665 0 0-.0888-2.6119-2.41606-2.6119 0 0-.76431 0-1.45729.6748v-2.71819h-1.7143v7.14199h1.73246zm6.84039.5598v-4.6189s.0706-2.68322-2.4349-2.68322v1.65242s.7825-.0356.7825 1.4217v4.228zm4.0402.1783s2.8977-.004 2.8977-2.6092c0 0 .0942-2.6455-2.8977-2.6455 0 0-2.8325.0006-2.8325 2.6455 0 0-.0915 2.6092 2.8325 2.6092zm6.7879 2.4336s2.5048.0269 2.5048-2.6778h.0014v-4.8363h-1.6659v.4791s-.4925-.6527-1.4385-.6527c0 0-2.4254-.1022-2.4254 2.6274 0 0-.0269 2.5426 2.3582 2.5426 0 0 .9722.0397 1.505-.6533v.4003s.1205 1.2521-1.0926 1.2521h-.4131v1.5186zm-17.70813-5.042c0-.6082.49383-1.1014 1.10205-1.1014.60753 0 1.10137.4932 1.10137 1.1014 0 .6089-.49316 1.1021-1.10137 1.1021-.60822 0-1.10205-.4939-1.10205-1.1021zm16.42163 0c0-.6082.4932-1.1014 1.1014-1.1014s1.1014.4932 1.1014 1.1014c0 .6089-.4932 1.1021-1.1014 1.1021s-1.1014-.4939-1.1014-1.1021zm-5.5007-1.1014c-.6082 0-1.102.4932-1.102 1.1014s.4938 1.1021 1.102 1.1021c.6083 0 1.1014-.4932 1.1014-1.1021 0-.6082-.4931-1.1014-1.1014-1.1014z" fill="#1d1e1f" fill-rule="evenodd"/></svg>