<svg fill="none" height="32" viewBox="0 0 32 32" width="32" xmlns="http://www.w3.org/2000/svg"><path clip-rule="evenodd" d="m17.8085 28.8752c-.591.0823-1.1948.1248-1.8085.1248-.1547 0-.3087-.0027-.4621-.0081.1534.0053.3074.008.4621.008.6138 0 1.2175-.0433 1.8085-.1247zm.2226-.0329v-9.0837h3.0292l.5759-3.7587h-3.6051v-2.4388c0-1.0274.5027-2.031 2.1188-2.031h1.6399v-3.19932s-1.4882-.25411-2.9105-.25411c-2.9689 0-4.9104 1.7989-4.9104 5.05853v2.8647h-3.3016v3.7587h3.3016v9.0837c-6.21494-.9751-10.9689-6.3535-10.9689-12.8423 0-7.1797 5.8203-13 13-13s13 5.8203 13 13c0 6.4888-4.754 11.8672-10.9689 12.8423z" fill="#1d1e1f" fill-rule="evenodd"/></svg>