<svg fill="none" height="32" viewBox="0 0 32 32" width="32" xmlns="http://www.w3.org/2000/svg"><path d="m16 2c-7.18021 0-13 5.38516-13 12.0247 0 4.9046 2.053 7.2474 4.86926 9.3817l.01413.007v5.7562c0 .2721.31096.4276.5265.265l4.92931-3.6607.106.0459c.8269.1519 1.682.2332 2.5548.2332 7.1802 0 13-5.3852 13-12.0247 0-6.64314-5.8198-12.0283-13-12.0283zm-4.3569 15.0707c1.2756 0 2.364-.7633 2.6926-1.94h1.8834c-.4594 2.2686-2.2262 3.7527-4.576 3.7527-2.73144 0-4.89752-2.0389-4.89752-4.8728 0-2.8375 2.16608-4.87279 4.89752-4.87279 2.3746 0 4.152 1.51589 4.5901 3.82329h-1.8798c-.2863-1.2544-1.4135-2.0353-2.7103-2.0353-1.83745 0-3.06006 1.311-3.06006 3.0848 0 1.7774 1.38869 3.0601 3.06006 3.0601zm12.4205 1.6289h-1.7279v-3.8975c0-.8975-.523-1.3781-1.3251-1.3781-.8975 0-1.4735.5477-1.4735 1.6608v3.6148h-1.7279v-9.53352h1.7279v3.58662c.4134-.629 1.0848-.9364 1.9929-.9364.7385 0 1.3393.2402 1.8092.7349.4841.4947.7244 1.1661.7244 2.0354z" fill="#1d1e1f"/></svg>