<svg fill="none" height="32" viewBox="0 0 32 32" width="32" xmlns="http://www.w3.org/2000/svg"><path clip-rule="evenodd" d="m26.9392 6.60083c1.2048.3306 2.1537 1.30471 2.4757 2.54175.5851 2.24202.5851 6.91992.5851 6.91992s0 4.6778-.5851 6.9199c-.322 1.2371-1.2709 2.2112-2.4757 2.5419-2.1833.6007-10.9392.6007-10.9392.6007s-8.75589 0-10.93941-.6007c-1.20479-.3307-2.15361-1.3048-2.47561-2.5419-.58498-2.2421-.58498-6.9199-.58498-6.9199s0-4.6779.58498-6.91992c.322-1.23704 1.27082-2.21115 2.47561-2.54175 2.18352-.60083 10.93941-.60083 10.93941-.60083s8.7559 0 10.9392.60083zm-13.5642 5.52467v8.75l7-4.3748z" fill="#1d1e1f" fill-rule="evenodd"/></svg>